<?xml version="1.0" encoding="utf-8"?>
<!-- Generator: Adobe Illustrator 16.0.0, SVG Export Plug-In . SVG Version: 6.00 Build 0)  -->
<!DOCTYPE svg PUBLIC "-//W3C//DTD SVG 1.1//EN" "http://www.w3.org/Graphics/SVG/1.1/DTD/svg11.dtd">
<svg version="1.1" id="Layer_1" xmlns="http://www.w3.org/2000/svg" xmlns:xlink="http://www.w3.org/1999/xlink" x="0px" y="0px"
	 width="903.504px" height="103.334px" viewBox="0 0 903.504 103.334" enable-background="new 0 0 903.504 103.334"
	 xml:space="preserve">
<g>
	<g>
		<path fill="#FBFAFC" d="M1,38.995C1,26.33,1,13.665,1,1c17.664,0,35.329,0,52.993,0c-3.443,11.181-6.886,22.361-10.418,33.83
			c2.997,0,5.438,0,7.945,0c0.941-2.703,1.817-5.22,3.008-8.642c1.335,3.604,2.294,6.192,3.214,8.673c2.637,0,4.931,0,7.852,0
			C61.985,23.336,58.489,12.168,54.993,1c282.89,0,565.781,0,848.783,0c0,34.246,0,68.492,0,102.863c-300.853,0-601.814,0-902.776,0
			c0-20.884,0-41.876,0-62.868c3.521,2.225,7.137,4.314,10.543,6.704c6.017,4.221,11.906,8.624,17.716,12.854
			c6.261-7.793-1.957-9.283-5.129-13.342c20.384,0,40.292,0,61.688,0C68.896,59.43,53.083,70.847,37.27,82.263
			c-0.228-0.228-0.457-0.454-0.688-0.679c3.017-9.914,6.033-19.828,9.075-29.825c-7.435-0.881-7.421-0.877-9.495,5.484
			C32.193,69.411,28.194,81.568,24.24,93.74c-0.871,2.681-1.604,5.408-2.805,9.49c29.435-21.493,57.587-42.05,85.738-62.606
			c-0.098-0.341-0.196-0.682-0.293-1.023c-1.601,0-3.202,0-4.803,0c-32.118,0-64.235,0.009-96.353-0.025
			C4.149,39.573,2.574,39.197,1,38.995z M712.996,94.868c-0.301,0.004-0.601,0.008-0.9,0.012
			c-9.891-29.537-19.781-59.074-29.763-88.879c-14.128,0-28.105,0.129-42.078-0.089c-3.576-0.056-5.144,0.975-6.253,4.462
			c-6.138,19.303-12.58,38.51-18.895,57.757c-3.442,10.492-6.836,21-10.319,31.706c11.539,0,22.514,0,33.674,0
			c2.004-5.623,3.982-11.179,6.003-16.849c8.276,0,16.269,0.172,24.247-0.089c2.979-0.097,4.055,1.09,4.846,3.635
			c1.41,4.538,3.104,8.986,4.582,13.192c22.998,0,45.443,0,68.322,0c0-9.985,0-19.716,0-30.355c1.843,1.76,3.033,2.835,4.153,3.978
			c7.698,7.854,15.255,15.853,23.168,23.482c1.772,1.708,4.773,3.012,7.215,3.023c38.824,0.186,77.65,0.134,116.475,0.12
			c1.588,0,3.176-0.161,4.805-0.249c0-9.376,0-18.315,0-27.852c-19.244,0-38.276,0-57.188,0c0-3.89,0-7.178,0-10.885
			c10.596,0,21.004,0,31.564,0c0-5.498,0-10.565,0-16.059c-10.632,0-21.039,0-31.501,0c0-3.835,0-7.236,0-11.063
			c16.494,0,32.731,0,49.021,0c0-9.507,0-18.576,0-27.559c-26.905,0-53.483,0-80.489,0c0,22.039,0,43.772,0,65.685
			c-7.078,0-13.818-0.684-20.355,0.177c-7.738,1.02-10.771-3.518-13.974-9.169c2.678-0.89,5.063-1.588,7.379-2.469
			c11.538-4.393,17.982-12.667,18.122-23.176c0.185-13.924-5.682-23.719-17.787-28.254c-4.731-1.772-9.982-2.85-15.026-2.965
			c-16.154-0.367-32.323-0.137-48.486-0.137c-3.447,0-6.894,0-10.562,0C712.996,35.958,712.996,65.413,712.996,94.868z
			 M446.489,63.033c2.428-0.833,4.952-1.612,7.412-2.558c11.529-4.432,17.886-12.674,17.998-23.251
			c0.146-13.686-5.627-23.487-17.438-27.995c-4.867-1.858-10.298-2.983-15.5-3.087c-18.319-0.364-36.651-0.146-54.978-0.13
			c-1.271,0.001-2.542,0.162-4.28,0.28c0,29.703,0,59.111,0,88.52c-0.193,0.007-0.388,0.015-0.581,0.021
			c-9.894-29.544-19.786-59.087-29.746-88.833c-14.384,0-28.531,0.135-42.67-0.099c-3.346-0.056-4.549,1.181-5.498,4.094
			c-9.3,28.571-18.727,57.102-28.096,85.65c-0.435,1.325-0.677,2.714-1.035,4.176c11.366,0,22.338,0,33.437,0
			c2.014-5.657,3.992-11.213,5.994-16.834c8.51,0,16.669-0.147,24.813,0.143c1.381,0.049,3.32,1.7,3.924,3.082
			c1.964,4.49,3.428,9.197,4.968,13.497c23.026,0,45.466,0,68.337,0c0-10.003,0-19.736,0-28.977
			c6.727,6.347,14.174,12.141,20.044,19.239c6.668,8.064,14.173,11.315,24.51,10.175c7.492-0.826,15.148-0.161,22.463-0.161
			c0-9.78,0-18.85,0-27.992c-6.532,0-12.778-0.638-18.836,0.159C453.97,73.174,449.524,69.809,446.489,63.033z M277.757,6.447
			c-0.539-0.195-0.833-0.395-1.128-0.395c-45.654-0.018-91.309-0.105-136.963,0.034c-11.069,0.034-19.193,7.547-19.448,18.666
			c-0.131,5.733,0.895,12.282,3.716,17.106c4.209,7.196,10.438,13.219,15.878,19.682c1.17,1.39,2.784,2.409,3.931,3.813
			c2.171,2.658,2.163,4.994-1.743,5.774c-2.588,0.517-5.264,0.802-7.904,0.828c-9.604,0.095-19.209,0.038-28.825,0.038
			c0,9.596,0,18.663,0,27.955c20.249,0,40.234,0.496,60.18-0.162c15.175-0.5,23.204-12.285,19.715-27.062
			c-2.782-11.778-10.679-20.029-19.008-28.083c-2.355-2.278-3.943-5.349-5.883-8.055c3.426-0.865,6.837-2.4,10.28-2.476
			c13.324-0.292,26.657-0.119,39.987-0.119c2.423,0,4.848,0,7.686,0c0,22.385,0,44.118,0,65.634c10.5,0,20.569,0,31.052,0
			c0-22.09,0-43.823,0-65.801c9.711,0,18.995,0,28.477,0C277.757,24.628,277.757,15.679,277.757,6.447z M533.391,44.612
			c-0.341,0.015-0.681,0.029-1.021,0.045c-3.733-11.686-7.406-23.392-11.282-35.029c-0.466-1.397-2.019-3.45-3.098-3.469
			c-13.587-0.237-27.18-0.155-40.764-0.155c0,9.609,0,18.672,0,28.057c6.559,0,12.84,0,19.2,0
			c7.261,22.132,14.433,43.994,21.549,65.685c10.534,0,20.642,0,30.768,0c3.2-12.786,6.345-25.353,9.828-39.278
			c4.209,13.982,8.016,26.631,11.821,39.275c10.357,0,20.442,0,30.774,0c7.718-31.217,15.394-62.261,23.137-93.581
			c-10.328,0-20.122,0-30.298,0c-2.8,12.894-5.6,25.789-8.609,39.652c-0.777-1.948-1.194-2.842-1.497-3.773
			c-3.533-10.889-6.978-21.808-10.659-32.646c-0.456-1.344-2.11-3.206-3.26-3.243c-8.609-0.273-17.23-0.149-25.879-0.149
			C540.457,19.136,536.924,31.874,533.391,44.612z M86.576,102.515c-1.71-12.145-6.71-22.417-9.615-33.097
			c-7.894,1.682-5.641,7.401-4.734,12.699c-8.658-5.091-8.658-5.091-12.958,0.369C68.064,88.938,76.855,95.385,86.576,102.515z"/>
		<path fill-rule="evenodd" clip-rule="evenodd" fill="#302861" d="M37.27,82.263C53.083,70.847,68.896,59.43,85.819,47.211
			c-21.396,0-41.304,0-61.688,0c3.172,4.059,11.39,5.549,5.129,13.342c-5.811-4.231-11.7-8.634-17.716-12.854
			C8.137,45.309,4.521,43.22,1,40.995c0-0.666,0-1.333,0-2c1.574,0.202,3.149,0.578,4.724,0.579
			c32.118,0.034,64.235,0.025,96.353,0.025c1.601,0,3.202,0,4.803,0c0.098,0.341,0.196,0.682,0.293,1.023
			C79.022,61.179,50.87,81.736,21.435,103.229c1.202-4.082,1.934-6.809,2.805-9.49c3.954-12.172,7.953-24.329,11.921-36.496
			c2.074-6.361,2.061-6.365,9.495-5.484c-3.042,9.997-6.059,19.911-9.073,29.826c-0.1,0.404-0.202,0.806-0.304,1.208
			C36.61,82.617,36.94,82.44,37.27,82.263z"/>
		<path fill-rule="evenodd" clip-rule="evenodd" fill="#312A62" d="M54.993,1c3.496,11.168,6.992,22.336,10.6,33.861
			c-2.92,0-5.214,0-7.852,0c-0.919-2.48-1.878-5.069-3.214-8.673c-1.191,3.421-2.067,5.939-3.008,8.642c-2.507,0-4.948,0-7.945,0
			C47.107,23.361,50.55,12.181,53.993,1C54.327,1,54.66,1,54.993,1z"/>
		<path fill-rule="evenodd" clip-rule="evenodd" fill="#27205C" d="M712.996,94.868c0-29.455,0-58.91,0-88.867
			c3.668,0,7.114,0,10.562,0c16.163,0,32.332-0.23,48.486,0.137c5.044,0.115,10.295,1.192,15.026,2.965
			c12.105,4.535,17.972,14.33,17.787,28.254c-0.14,10.508-6.584,18.783-18.122,23.176c-2.315,0.881-4.701,1.579-7.379,2.469
			c3.202,5.651,6.235,10.189,13.974,9.169c6.537-0.861,13.277-0.177,20.355-0.177c0-21.913,0-43.646,0-65.685
			c27.006,0,53.584,0,80.489,0c0,8.983,0,18.052,0,27.559c-16.29,0-32.527,0-49.021,0c0,3.827,0,7.228,0,11.063
			c10.462,0,20.869,0,31.501,0c0,5.494,0,10.561,0,16.059c-10.561,0-20.969,0-31.564,0c0,3.707,0,6.996,0,10.885
			c18.911,0,37.943,0,57.188,0c0,9.536,0,18.475,0,27.852c-1.629,0.088-3.217,0.248-4.805,0.249
			c-38.824,0.014-77.65,0.066-116.475-0.12c-2.441-0.012-5.442-1.315-7.215-3.023c-7.913-7.63-15.47-15.629-23.168-23.482
			c-1.12-1.143-2.311-2.218-4.153-3.978c0,10.639,0,20.37,0,30.355c-22.879,0-45.324,0-68.322,0
			c-1.478-4.207-3.172-8.655-4.582-13.192c-0.791-2.545-1.867-3.732-4.846-3.635c-7.979,0.261-15.971,0.089-24.247,0.089
			c-2.021,5.67-3.999,11.226-6.003,16.849c-11.16,0-22.135,0-33.674,0c3.483-10.707,6.877-21.214,10.319-31.706
			c6.314-19.247,12.757-38.454,18.895-57.757c1.109-3.487,2.677-4.518,6.253-4.462c13.973,0.218,27.95,0.089,42.078,0.089
			c9.981,29.806,19.872,59.342,29.763,88.879C712.396,94.876,712.695,94.873,712.996,94.868z M746.638,29.022
			c0,5.942,0,11.468,0,17.321c8.117,0,15.896,0.068,23.672-0.025c4.906-0.059,6.477-3.208,6.597-7.586
			c0.156-5.713-1.971-9.444-6.37-9.621C762.621,28.795,754.685,29.022,746.638,29.022z M671.438,63.873
			c-4.11-12.226-7.993-23.781-11.878-35.336c-0.366,0.028-0.733,0.057-1.1,0.085c-4.218,11.662-8.438,23.324-12.752,35.251
			C654.486,63.873,662.595,63.873,671.438,63.873z"/>
		<path fill-rule="evenodd" clip-rule="evenodd" fill="#27205C" d="M446.489,63.033c3.035,6.776,7.48,10.141,15.242,9.119
			c6.058-0.797,12.304-0.159,18.836-0.159c0,9.142,0,18.212,0,27.992c-7.314,0-14.971-0.665-22.463,0.161
			c-10.337,1.14-17.842-2.11-24.51-10.175c-5.87-7.098-13.317-12.892-20.044-19.239c0,9.241,0,18.974,0,28.977
			c-22.871,0-45.312,0-68.337,0c-1.541-4.3-3.004-9.007-4.968-13.497c-0.604-1.382-2.543-3.033-3.924-3.082
			c-8.144-0.29-16.303-0.143-24.813-0.143c-2.002,5.622-3.98,11.178-5.994,16.834c-11.099,0-22.071,0-33.437,0
			c0.357-1.462,0.6-2.851,1.035-4.176c9.37-28.548,18.796-57.079,28.096-85.65c0.948-2.914,2.151-4.15,5.498-4.094
			c14.14,0.233,28.287,0.099,42.67,0.099c9.96,29.745,19.853,59.289,29.746,88.833c0.193-0.007,0.388-0.014,0.581-0.021
			c0-29.409,0-58.817,0-88.52c1.738-0.118,3.009-0.279,4.28-0.28c18.326-0.016,36.658-0.234,54.978,0.13
			c5.202,0.104,10.633,1.229,15.5,3.087c11.812,4.508,17.584,14.309,17.438,27.995c-0.112,10.577-6.469,18.819-17.998,23.251
			C451.441,61.421,448.917,62.2,446.489,63.033z M413.483,46.35c8.151,0,15.917,0.032,23.682-0.012
			c4.528-0.026,6.476-2.631,6.761-6.921c0.378-5.67-1.55-9.946-5.675-10.17c-8.19-0.445-16.423-0.132-24.768-0.132
			C413.483,34.974,413.483,40.258,413.483,46.35z M326.659,28.588c-0.388,0.014-0.774,0.028-1.162,0.042
			c-4.216,11.659-8.433,23.317-12.664,35.02c8.771,0,16.936,0,25.554,0C334.377,51.661,330.518,40.124,326.659,28.588z"/>
		<path fill-rule="evenodd" clip-rule="evenodd" fill="#271F5C" d="M277.757,6.447c0,9.232,0,18.181,0,27.378
			c-9.481,0-18.765,0-28.477,0c0,21.978,0,43.711,0,65.801c-10.483,0-20.552,0-31.052,0c0-21.516,0-43.249,0-65.634
			c-2.838,0-5.263,0-7.686,0c-13.33,0-26.664-0.173-39.987,0.119c-3.443,0.076-6.854,1.611-10.28,2.476
			c1.94,2.707,3.528,5.777,5.883,8.055c8.329,8.054,16.226,16.305,19.008,28.083c3.489,14.776-4.54,26.561-19.715,27.062
			c-19.946,0.658-39.931,0.162-60.18,0.162c0-9.292,0-18.358,0-27.955c9.616,0,19.222,0.057,28.825-0.038
			c2.64-0.025,5.315-0.311,7.904-0.828c3.906-0.781,3.914-3.117,1.743-5.774c-1.147-1.404-2.761-2.424-3.931-3.813
			c-5.439-6.463-11.668-12.486-15.878-19.682c-2.822-4.824-3.848-11.374-3.716-17.106c0.255-11.118,8.379-18.632,19.448-18.666
			c45.654-0.139,91.309-0.052,136.963-0.034C276.923,6.052,277.218,6.251,277.757,6.447z"/>
		<path fill-rule="evenodd" clip-rule="evenodd" fill="#27205C" d="M533.391,44.612c3.533-12.738,7.066-25.476,10.71-38.61
			c8.648,0,17.27-0.124,25.879,0.149c1.149,0.037,2.804,1.898,3.26,3.243c3.682,10.838,7.126,21.757,10.659,32.646
			c0.303,0.931,0.72,1.825,1.497,3.773c3.01-13.863,5.81-26.759,8.609-39.652c10.176,0,19.97,0,30.298,0
			c-7.743,31.32-15.419,62.364-23.137,93.581c-10.332,0-20.417,0-30.774,0c-3.806-12.644-7.612-25.292-11.821-39.275
			c-3.483,13.925-6.628,26.492-9.828,39.278c-10.126,0-20.233,0-30.768,0c-7.116-21.691-14.288-43.553-21.549-65.685
			c-6.36,0-12.642,0-19.2,0c0-9.385,0-18.447,0-28.057c13.584,0,27.177-0.082,40.764,0.155c1.079,0.019,2.632,2.072,3.098,3.469
			c3.876,11.638,7.549,23.344,11.282,35.029C532.71,44.642,533.05,44.627,533.391,44.612z"/>
		<path fill-rule="evenodd" clip-rule="evenodd" fill="#322B62" d="M86.576,102.515c-9.721-7.13-18.511-13.577-27.308-20.029
			c4.3-5.46,4.3-5.46,12.958-0.369c-0.907-5.298-3.159-11.017,4.734-12.699C79.866,80.098,84.865,90.37,86.576,102.515z"/>
		<path fill-rule="evenodd" clip-rule="evenodd" fill="#FBFAFC" d="M37.27,82.263c-0.33,0.177-0.66,0.354-0.99,0.53
			c0.102-0.402,0.204-0.804,0.304-1.208C36.813,81.809,37.042,82.035,37.27,82.263z"/>
		<path fill-rule="evenodd" clip-rule="evenodd" fill="#F7F6F8" d="M746.638,29.022c8.047,0,15.983-0.227,23.898,0.089
			c4.399,0.176,6.526,3.907,6.37,9.621c-0.12,4.378-1.69,7.527-6.597,7.586c-7.776,0.093-15.555,0.025-23.672,0.025
			C746.638,40.49,746.638,34.964,746.638,29.022z"/>
		<path fill-rule="evenodd" clip-rule="evenodd" fill="#F8F7F9" d="M671.438,63.873c-8.844,0-16.952,0-25.729,0
			c4.314-11.927,8.534-23.589,12.752-35.251c0.366-0.028,0.733-0.057,1.1-0.085C663.445,40.092,667.328,51.647,671.438,63.873z"/>
		<path fill-rule="evenodd" clip-rule="evenodd" fill="#F7F6F8" d="M413.483,46.35c0-6.092,0-11.376,0-17.235
			c8.345,0,16.577-0.313,24.768,0.132c4.125,0.224,6.053,4.5,5.675,10.17c-0.285,4.29-2.232,6.895-6.761,6.921
			C429.4,46.382,421.635,46.35,413.483,46.35z"/>
		<path fill-rule="evenodd" clip-rule="evenodd" fill="#F8F7F9" d="M326.659,28.588c3.859,11.536,7.718,23.073,11.728,35.062
			c-8.618,0-16.783,0-25.554,0c4.231-11.702,8.448-23.361,12.664-35.02C325.885,28.616,326.271,28.602,326.659,28.588z"/>
	</g>
</g>
</svg>
