<?xml version="1.0" encoding="utf-8"?>
<!-- Generator: Adobe Illustrator 16.0.0, SVG Export Plug-In . SVG Version: 6.00 Build 0)  -->
<!DOCTYPE svg PUBLIC "-//W3C//DTD SVG 1.1//EN" "http://www.w3.org/Graphics/SVG/1.1/DTD/svg11.dtd">
<svg version="1.1" id="Layer_1" xmlns="http://www.w3.org/2000/svg" xmlns:xlink="http://www.w3.org/1999/xlink" x="0px" y="0px"
	 width="922px" height="112px" viewBox="0 0 922 112" enable-background="new 0 0 922 112" xml:space="preserve">
<g>
	<path fill-rule="evenodd" clip-rule="evenodd" fill="#FFFFFF" d="M9,41.995c35.738,0,71.476,0,107.213,0
		c0.198,0.412,0.396,0.823,0.593,1.235c-28.893,21.124-57.785,42.249-86.678,63.375c-0.47-0.416-0.939-0.831-1.409-1.247
		C34.224,88.39,39.728,71.42,45.307,54.221c2.868,0,5.828,0,9.481,0c-3.239,10.093-6.426,20.027-9.941,30.983
		C60.401,73.738,75.253,62.79,90.722,51.388c-18.931,0-37.226,0-56.019,0c2.078,1.727,3.995,3.322,6.21,5.163
		c-0.835,2.532-1.721,5.214-2.802,8.488C28.146,57.834,18.572,50.915,9,43.995C9,43.328,9,42.662,9,41.995z"/>
	<path fill-rule="evenodd" clip-rule="evenodd" fill="#FFFFFF" d="M63.993,4c2.71,8.832,5.423,17.663,8.128,26.497
		c0.79,2.58,1.555,5.167,2.355,7.83c-8.742,1.521-8.742,1.521-11.849-6.393c-1.187,2.338-1.799,5.558-3.667,6.673
		c-1.928,1.151-5.077,0.256-8.323,0.256C54.191,26.899,57.592,15.45,60.993,4C61.993,4,62.993,4,63.993,4z"/>
	<path fill-rule="evenodd" clip-rule="evenodd" fill="#FFFFFF" d="M612.262,102.764c4.643-14.15,9.247-28.224,13.877-42.289
		c5.24-15.919,10.586-31.804,15.678-47.77c0.914-2.869,2.157-3.814,5.155-3.777c13.324,0.165,26.653,0.166,39.979,0
		c3.042-0.037,4.146,1.039,5.081,3.861c8.861,26.719,17.912,53.375,26.924,80.044c0.352,1.044,0.857,2.037,1.848,4.356
		c0-30.084,0-58.85,0-87.917c1.759-0.111,3.038-0.262,4.318-0.263c19.823-0.015,39.653-0.298,59.469,0.092
		c12.978,0.255,24.254,7.652,27.093,19.565c3.979,16.698,1.446,28.896-18.855,36.275c-1.473,0.535-2.992,0.945-4.658,1.468
		c1.682,2.407,3.142,4.785,4.92,6.896c0.725,0.86,2.132,1.592,3.241,1.609c8.303,0.133,16.608,0.072,25.454,0.072
		c0-22.019,0-43.735,0-65.716c27.133,0,53.723,0,80.709,0c0,8.951,0,18.002,0,27.603c-16.287,0-32.675,0-49.326,0
		c0,3.802,0,7.073,0,10.89c10.277,0,20.674,0,31.392,0c0,5.586,0,10.635,0,16.063c-10.361,0-20.628,0-31.278,0
		c0,3.743,0,7.124,0,11.061c18.971,0,38.023,0,57.338,0c0,9.467,0,18.397,0,28.099c-1.513,0-3.094,0-4.675,0
		c-39.148,0-78.297,0.048-117.442-0.121c-2.305-0.01-5.145-1.194-6.811-2.794c-8.75-8.412-17.204-17.135-26.649-26.644
		c0,10.447,0,19.775,0,29.559c-3.415,0-6.202,0-8.99,0c-18.491,0-36.982-0.083-55.473,0.07c-3.662,0.031-5.812-0.789-6.77-4.68
		c-1.007-4.093-1.656-9.563-4.487-11.56c-2.937-2.07-8.301-0.83-12.602-0.793c-4.609,0.041-10.228-1.159-13.523,1.025
		c-2.925,1.938-3.535,7.699-4.666,11.908c-0.841,3.124-2.305,4.166-5.518,4.099c-9.657-0.2-19.322-0.075-28.984-0.089
		C613.534,102.968,613.041,102.857,612.262,102.764z M755.117,48.994c7.419,0,14.386-0.065,21.352,0.025
		c4.015,0.052,7.191-0.573,7.463-5.597c0.42-7.747-1.192-11.02-6.815-11.315c-7.247-0.382-14.529-0.094-21.999-0.094
		C755.117,37.809,755.117,43.07,755.117,48.994z M679.038,66.788c-4.06-11.657-7.91-22.718-12.133-34.843
		c-4.453,12.327-8.503,23.538-12.66,35.046c7.352,0,14.325,0.007,21.299-0.008C676.531,66.981,677.518,66.877,679.038,66.788z"/>
	<path fill-rule="evenodd" clip-rule="evenodd" fill="#FFFFFF" d="M455.263,66.361c1.633,2.43,3.036,5.06,4.993,7.18
		c0.916,0.993,2.896,1.363,4.404,1.389c7.824,0.132,15.651,0.062,23.878,0.062c0,9.21,0,18.262,0,27.996
		c-6.642,0-13.507-0.753-20.143,0.162c-12.394,1.71-21.587-2.424-29.191-12.184c-4.751-6.101-10.697-11.269-17.257-16.339
		c0,4.573,0,9.146,0,13.719c0,4.646,0,9.294,0,14.333c-1.671,0.114-3.104,0.295-4.535,0.296c-19.994,0.019-39.988-0.09-59.98,0.102
		c-3.854,0.037-5.467-1.261-6.602-4.881c-3.839-12.253-3.988-12.272-16.768-12.172c-4.757,0.037-10.576-1.107-13.951,1.18
		c-3.046,2.063-3.695,8.002-4.859,12.376c-0.699,2.625-1.811,3.474-4.402,3.448c-10.324-0.1-20.65-0.041-31.688-0.041
		c3.333-9.97,6.585-19.585,9.765-29.224c6.679-20.248,13.428-40.473,19.867-60.795c1.004-3.171,2.318-4.065,5.444-4.031
		c13.161,0.147,26.325,0.152,39.486-0.002c3.164-0.037,4.372,0.953,5.405,4.077c8.783,26.579,17.848,53.064,26.843,79.572
		c0.396,1.17,0.929,2.293,1.91,4.684c0-30.07,0-58.797,0-87.872c1.521-0.148,2.783-0.378,4.044-0.379
		c19.994-0.022,39.996-0.375,59.978,0.112c12.866,0.313,23.755,7.37,26.77,19.332c4.148,16.46,1.622,29.375-19.092,36.516
		C458.202,65.452,456.801,65.87,455.263,66.361z M422.167,48.994c7.39,0,14.208-0.067,21.023,0.025
		c3.904,0.054,7.312-0.283,7.761-5.276c0.678-7.542-1.038-11.254-6.476-11.6c-7.39-0.47-14.832-0.117-22.308-0.117
		C422.167,37.94,422.167,43.202,422.167,48.994z M333.97,31.9c-4.483,12.405-8.525,23.591-12.605,34.88c8.399,0,16.331,0,24.672,0
		C342.081,55.344,338.234,44.224,333.97,31.9z"/>
	<path fill-rule="evenodd" clip-rule="evenodd" fill="#FFFFFF" d="M153.641,70.245c-4.011-3.709-8.106-7.332-12.016-11.146
		c-7.292-7.114-12.431-15.382-14.485-25.597C124.908,22.4,134.455,9.06,145.462,9.038c45.993-0.089,91.987-0.034,137.98-0.022
		c0.641,0.001,1.282,0.124,2.215,0.22c0,9.171,0,18.221,0,27.648c-9.441,0-18.711,0-28.529,0c0,22.086,0,43.806,0,65.812
		c-10.478,0-20.412,0-30.9,0c0-21.583,0-43.304,0-65.7c-5.634,0-10.729,0-15.824,0c-8.832,0-17.666-0.104-26.495,0.046
		c-4.103,0.07-8.237,0.413-12.266,1.143c-0.952,0.172-2.264,2.506-2.095,3.654c0.207,1.406,1.57,2.906,2.822,3.852
		c8.706,6.581,15.821,14.566,19.607,24.809c4.116,11.137,3.696,23.682-7.538,29.408c-2.833,1.443-6.072,2.907-9.141,2.942
		c-20.326,0.232-40.657,0.08-60.985,0.034c-0.287-0.001-0.574-0.248-1.089-0.485c0-8.843,0-17.775,0-27.069
		c13.215-1.416,26.961,1.646,39.812-2.879C153.237,71.715,153.439,70.98,153.641,70.245z"/>
	<path fill-rule="evenodd" clip-rule="evenodd" fill="#FFFFFF" d="M609.606,102.982c-9.816,0-19.464,0.133-29.098-0.164
		c-1.237-0.038-3.024-2.102-3.504-3.569c-3.174-9.727-6.054-19.549-9.048-29.335c-0.324-1.059-0.764-2.083-1.45-3.934
		c-2.995,11.732-5.951,22.582-8.435,33.54c-0.637,2.807-1.709,3.514-4.247,3.494c-9.321-0.072-18.645-0.028-28.375-0.028
		c-4.507-13.854-8.994-27.718-13.53-41.566c-2.279-6.959-4.789-13.848-6.897-20.857c-0.8-2.661-1.957-3.743-4.777-3.623
		c-4.819,0.205-9.653,0.057-14.892,0.057c0-9.189,0-18.239,0-27.645c14.248,0,28.646,0,43.262,0
		c3.91,12.142,7.856,24.399,11.803,36.657c0.315-0.035,0.63-0.07,0.945-0.104c3.347-12.13,6.691-24.26,10.179-36.898
		c8.799,0,17.935-0.12,27.059,0.152c1.14,0.034,2.772,1.961,3.236,3.33c3.499,10.314,6.754,20.71,10.113,31.072
		c0.293,0.904,0.784,1.744,1.455,3.205c2.757-12.879,5.378-25.118,8.043-37.561c10.241,0,20.527,0,31.341,0
		C625.059,40.479,617.365,71.599,609.606,102.982z"/>
	<path fill-rule="evenodd" clip-rule="evenodd" fill="#FFFFFF" d="M65.761,85.453c2.401-1.956,4.584-3.735,7.166-5.839
		c1.565,1.121,3.739,2.678,7.616,5.455c-4.738-7.706-1.86-11.449,4.751-13.723c3.684,11.252,7.446,22.743,11.209,34.236
		c-0.286,0.395-0.572,0.789-0.858,1.183C85.828,99.765,76.01,92.762,65.761,85.453z"/>
</g>
</svg>
