<?xml version="1.0" encoding="utf-8"?>
<!-- Generator: Adobe Illustrator 16.0.0, SVG Export Plug-In . SVG Version: 6.00 Build 0)  -->
<!DOCTYPE svg PUBLIC "-//W3C//DTD SVG 1.1//EN" "http://www.w3.org/Graphics/SVG/1.1/DTD/svg11.dtd">
<svg version="1.1" id="Layer_1" xmlns="http://www.w3.org/2000/svg" xmlns:xlink="http://www.w3.org/1999/xlink" x="0px" y="0px"
	 width="700.912px" height="286.667px" viewBox="0 0 700.912 286.667" enable-background="new 0 0 700.912 286.667"
	 xml:space="preserve">
<g>
	<g>
		<path fill="#FFFFFF" d="M1,108.986C1,72.991,1,36.995,1,1c49.66,0,99.321,0,148.981,0c-10.116,31.48-20.231,62.96-30.523,94.988
			c6.709,0,12.688-0.17,18.652,0.071c3.042,0.123,4.169-0.968,4.981-3.847c2.173-7.708,4.785-15.293,7.499-23.791
			c2.63,8.616,4.917,16.471,7.499,24.228c0.442,1.328,2.101,3.132,3.271,3.189c6.457,0.312,12.937,0.149,20.145,0.149
			C171.213,63.96,161.097,32.48,150.981,1c183.977,0,367.954,0,551.931,0c0,95.321,0,190.643,0,285.964
			c-233.971,0-467.941,0-701.912,0c0-58.992,0-117.985,0-176.978c13.67,9.836,27.375,19.625,41,29.521
			c12.926,9.389,25.769,18.891,39.137,28.702c2.263-6.648,4.358-12.808,6.569-19.304c-8.358-6.427-16.796-12.914-25.604-19.686
			c59.072,0,117.693,0,176.748,0c-47.346,34.751-94.296,69.213-142.112,104.311c10.059-31.265,19.693-61.21,29.399-91.379
			c-7.625,0-14.758,0-21.567,0c-15.583,47.921-31.085,95.594-46.948,144.374c81.314-59.366,161.739-118.082,243.18-177.54
			C199.916,108.986,100.458,108.986,1,108.986z M579.168,213.181c1.388-0.419,2.807-0.773,4.174-1.271
			c11.531-4.195,20.803-11.202,20.853-26.942c0.056-17.833-15.205-28.657-29.319-28.902c-19.65-0.34-39.312-0.091-58.969-0.073
			c-1.266,0.001-2.532,0.181-4.183,0.307c0,29.408,0,58.509,0,87.611c-9.955-28.106-19.412-56.236-28.718-84.416
			c-0.858-2.598-1.9-3.61-4.719-3.58c-13.493,0.146-26.989,0.195-40.479-0.028c-3.207-0.054-4.059,1.303-4.921,3.944
			c-7.872,24.129-15.903,48.206-23.841,72.313c-1.902,5.781-3.628,11.622-5.557,17.825c10.319,0,19.818-0.277,29.287,0.129
			c4.113,0.177,5.947-1.221,7-4.924c1.103-3.884,1.548-9.216,4.237-11.053c3.012-2.058,8.214-1.034,12.467-1.115
			c4.654-0.088,10.506-1.591,13.639,0.627c3.219,2.279,4.139,8.207,5.39,12.726c0.864,3.123,2.388,3.686,5.252,3.665
			c16.491-0.112,32.983-0.055,49.476-0.055c5.114,0,10.229,0,15.741,0c0-9.836,0-19.216,0-29.249
			c9.234,9.154,17.832,17.877,26.711,26.303c1.676,1.59,4.472,2.814,6.758,2.824c39.312,0.17,78.627,0.125,117.939,0.112
			c1.436-0.001,2.872-0.15,4.219-0.226c0-9.422,0-18.488,0-27.966c-19.372,0-38.438,0-57.357,0c0-3.828,0-7.23,0-11.045
			c10.729,0,21.135,0,31.312,0c0-5.505,0-10.577,0-16.049c-10.759,0-21.167,0-31.441,0c0-3.711,0-6.998,0-10.698
			c16.595,0,32.995,0,49.569,0c0-9.488,0-18.553,0-27.766c-26.95,0-53.674,0-80.82,0c0,21.956,0,43.686,0,65.762
			c-6.542,0-12.742-0.592-18.777,0.151C586.686,223.035,582.165,220.122,579.168,213.181z M469.303,148.981
			c10.441,0,20.104-0.24,29.745,0.118c3.9,0.145,5.611-1.168,6.628-4.719c1.155-4.031,1.714-9.592,4.528-11.429
			c3.201-2.088,8.607-0.903,13.059-0.938c4.474-0.034,10.048-1.396,13.11,0.738c2.971,2.069,3.568,7.78,4.816,12.007
			c0.93,3.154,2.312,4.367,5.866,4.328c20.327-0.219,40.659-0.101,60.988-0.12c1.259-0.001,2.519-0.197,4.188-0.338
			c0-9.693,0-19.047,0-28.498c9.053,8.94,17.796,17.622,26.615,26.226c1.109,1.082,2.604,2.484,3.938,2.506
			c11.938,0.195,23.879,0.114,35.858,0.114c0-9.578,0-18.645,0-27.994c-6.738,0-13.29-0.643-19.659,0.167
			c-7.579,0.963-10.924-3.21-13.948-8.909c2.366-0.808,4.522-1.527,6.666-2.279c19.55-6.852,22.268-25.109,15.029-39.714
			c-5.102-10.293-14.871-14.885-26.002-15.133c-19.654-0.439-39.324-0.129-58.988-0.109c-1.254,0.001-2.507,0.202-3.929,0.324
			c0,29.485,0,58.572,0,89.009c-0.933-2.554-1.442-3.853-1.884-5.174c-9.011-26.95-17.985-53.911-27.104-80.824
			c-0.452-1.332-2.137-3.189-3.27-3.205c-15.126-0.214-30.257-0.143-45.34-0.143C489.923,86.291,479.743,117.24,469.303,148.981z
			 M446.958,82.784c9.994,0,19.399,0,28.655,0c0-9.496,0-18.563,0-27.629c-0.812-0.071-1.3-0.152-1.786-0.152
			c-45.973-0.007-91.946-0.023-137.919,0.005c-7.486,0.005-14.089,4.901-16.818,12.297c-4.291,11.625-0.527,21.73,6.615,30.728
			c4.623,5.824,10.255,10.84,15.309,16.334c0.882,0.958,1.882,2.84,1.493,3.669c-0.469,0.999-2.314,1.708-3.648,1.879
			c-4.099,0.526-8.235,0.941-12.364,1.023c-7.762,0.154-15.527,0.044-23.235,0.044c0,9.641,0,18.707,0,27.996
			c20.763,0,41.238,0.327,61.691-0.172c7.475-0.182,16.357-4.946,18.414-13.864c2.224-9.646,0.208-18.831-5.787-26.549
			c-4.951-6.374-11.043-11.854-16.472-17.873c-1.106-1.226-1.512-3.083-2.24-4.649c1.391-0.638,2.753-1.756,4.174-1.835
			c8.613-0.48,17.238-0.855,25.864-1.012c8.927-0.162,17.86-0.036,27.2-0.036c0,22.29,0,44.018,0,65.692c10.486,0,20.552,0,30.854,0
			C446.958,126.777,446.958,105.169,446.958,82.784z M371.644,155.979c-8.668,0-17.157,0.068-25.644-0.041
			c-2.605-0.033-3.552,0.791-4.237,3.49c-2.683,10.572-5.814,21.03-8.801,31.525c-0.272,0.956-0.701,1.868-1.287,3.403
			c-4.231-13.317-8.205-25.827-12.123-38.159c-14.654,0-28.927,0-43.355,0c0,9.286,0,18.353,0,27.779
			c4.686,0,9.191,0.386,13.598-0.108c4.422-0.495,5.953,1.528,7.145,5.303c5.979,18.941,12.149,37.822,18.318,56.703
			c0.666,2.037,0.842,4.342,4.343,4.203c8.484-0.336,16.996,0.031,25.484-0.255c1.322-0.044,3.38-1.813,3.742-3.151
			c2.991-11.085,5.663-22.256,8.641-34.242c0.692,1.812,1.159,2.837,1.482,3.906c3.015,9.972,6.032,19.941,8.979,29.934
			c0.625,2.12,1.08,3.822,4.019,3.767c9.479-0.18,18.963-0.066,28.562-0.066c7.765-31.386,15.478-62.56,23.254-93.99
			c-9.637,0-18.798,0.068-27.956-0.042c-2.742-0.033-3.457,0.997-3.98,3.692c-2.201,11.346-4.831,22.608-7.576,35.147
			C379.809,181.108,375.749,168.612,371.644,155.979z M194.93,203.854c2.768,9.035,5.485,17.9,8.201,26.767
			c-7.745-4.346-14.526-9.031-20.984-14.126c-2.359-1.861-4.203-2.484-6.472-0.474c-4.249,3.767-8.436,7.603-12.94,11.674
			c26.787,19.581,53.221,38.904,80.592,58.913c-10.61-32.758-20.811-64.248-31.051-95.861
			C206.312,195.252,200.761,199.447,194.93,203.854z"/>
		<path fill-rule="evenodd" clip-rule="evenodd" fill="#261F5C" d="M1,108.986c99.458,0,198.916,0,299.801,0
			c-81.441,59.458-161.866,118.174-243.18,177.54c15.863-48.78,31.365-96.453,46.948-144.374c6.809,0,13.943,0,21.567,0
			c-9.707,30.169-19.341,60.114-29.399,91.379c47.816-35.098,94.766-69.56,142.112-104.311c-59.055,0-117.676,0-176.748,0
			c8.808,6.772,17.246,13.259,25.604,19.686c-2.21,6.496-4.306,12.655-6.569,19.304C67.769,158.398,54.926,148.896,42,139.508
			c-13.625-9.897-27.33-19.686-41-29.521C1,109.653,1,109.32,1,108.986z"/>
		<path fill-rule="evenodd" clip-rule="evenodd" fill="#261F5C" d="M150.981,1c10.116,31.48,20.232,62.96,30.523,94.986
			c-7.208,0-13.688,0.163-20.145-0.149c-1.17-0.057-2.829-1.861-3.271-3.189c-2.582-7.757-4.869-15.611-7.499-24.228
			c-2.713,8.497-5.325,16.082-7.499,23.791c-0.812,2.879-1.94,3.97-4.981,3.847c-5.963-0.241-11.943-0.071-18.652-0.071
			C129.75,63.96,139.865,32.48,149.981,1C150.314,1,150.647,1,150.981,1z"/>
		<path fill-rule="evenodd" clip-rule="evenodd" fill="#271F5C" d="M579.168,213.181c2.997,6.941,7.518,9.854,14.923,8.942
			c6.035-0.743,12.235-0.151,18.777-0.151c0-22.076,0-43.806,0-65.762c27.146,0,53.87,0,80.82,0c0,9.213,0,18.277,0,27.766
			c-16.574,0-32.975,0-49.569,0c0,3.7,0,6.987,0,10.698c10.274,0,20.683,0,31.441,0c0,5.472,0,10.544,0,16.049
			c-10.178,0-20.583,0-31.312,0c0,3.814,0,7.217,0,11.045c18.919,0,37.985,0,57.357,0c0,9.478,0,18.544,0,27.966
			c-1.347,0.075-2.783,0.225-4.219,0.226c-39.312,0.013-78.627,0.058-117.939-0.112c-2.286-0.01-5.082-1.234-6.758-2.824
			c-8.879-8.426-17.477-17.148-26.711-26.303c0,10.033,0,19.413,0,29.249c-5.512,0-10.627,0-15.741,0
			c-16.492,0-32.984-0.058-49.476,0.055c-2.864,0.021-4.388-0.542-5.252-3.665c-1.251-4.519-2.171-10.446-5.39-12.726
			c-3.133-2.218-8.984-0.715-13.639-0.627c-4.253,0.081-9.455-0.942-12.467,1.115c-2.689,1.837-3.135,7.169-4.237,11.053
			c-1.053,3.703-2.887,5.101-7,4.924c-9.469-0.406-18.968-0.129-29.287-0.129c1.929-6.203,3.654-12.044,5.557-17.825
			c7.938-24.107,15.969-48.185,23.841-72.313c0.862-2.642,1.714-3.998,4.921-3.944c13.489,0.224,26.985,0.175,40.479,0.028
			c2.818-0.03,3.86,0.982,4.719,3.58c9.306,28.18,18.763,56.31,28.718,84.416c0-29.103,0-58.203,0-87.611
			c1.65-0.126,2.917-0.306,4.183-0.307c19.656-0.018,39.318-0.267,58.969,0.073c14.114,0.245,29.375,11.069,29.319,28.902
			c-0.05,15.74-9.321,22.747-20.853,26.942C581.975,212.407,580.556,212.762,579.168,213.181z M546.094,195.976
			c7.483,0,14.451,0.01,21.418-0.003c5.961-0.011,7.729-1.575,8.245-7.241c0.433-4.759-2.121-9.236-6.526-9.522
			c-7.695-0.502-15.446-0.141-23.137-0.141C546.094,184.935,546.094,190.207,546.094,195.976z M470.096,213.855
			c-3.987-11.896-7.783-23.226-11.997-35.799c-4.592,12.673-8.756,24.164-12.971,35.799
			C453.602,213.855,461.575,213.855,470.096,213.855z"/>
		<path fill-rule="evenodd" clip-rule="evenodd" fill="#271F5C" d="M469.303,148.981c10.44-31.742,20.62-62.691,30.914-93.987
			c15.083,0,30.214-0.071,45.34,0.143c1.133,0.016,2.817,1.873,3.27,3.205c9.118,26.913,18.093,53.874,27.104,80.824
			c0.441,1.321,0.951,2.62,1.884,5.174c0-30.438,0-59.524,0-89.009c1.422-0.122,2.675-0.323,3.929-0.324
			c19.664-0.02,39.334-0.33,58.988,0.109c11.131,0.249,20.9,4.84,26.002,15.133c7.238,14.605,4.521,32.862-15.029,39.714
			c-2.144,0.751-4.3,1.471-6.666,2.279c3.024,5.699,6.369,9.872,13.948,8.909c6.369-0.81,12.921-0.167,19.659-0.167
			c0,9.35,0,18.417,0,27.994c-11.979,0-23.921,0.081-35.858-0.114c-1.335-0.021-2.829-1.424-3.938-2.506
			c-8.819-8.604-17.562-17.286-26.615-26.226c0,9.451,0,18.804,0,28.498c-1.67,0.141-2.93,0.337-4.188,0.338
			c-20.329,0.02-40.661-0.099-60.988,0.12c-3.554,0.039-4.937-1.174-5.866-4.328c-1.248-4.227-1.846-9.938-4.816-12.007
			c-3.062-2.134-8.637-0.772-13.11-0.738c-4.451,0.034-9.857-1.151-13.059,0.938c-2.814,1.836-3.373,7.398-4.528,11.429
			c-1.017,3.551-2.728,4.863-6.628,4.719C489.407,148.741,479.744,148.981,469.303,148.981z M612.048,94.989
			c7.436,0,14.394,0.008,21.352-0.002c6.12-0.009,7.708-1.381,8.32-7.142c0.521-4.91-2.271-9.452-6.884-9.713
			c-7.548-0.428-15.139-0.116-22.788-0.116C612.048,83.872,612.048,89.143,612.048,94.989z M511.113,112.839
			c8.622,0,16.59,0,24.952,0c-3.908-11.671-7.732-23.088-11.976-35.759C519.481,89.777,515.336,101.202,511.113,112.839z"/>
		<path fill-rule="evenodd" clip-rule="evenodd" fill="#271F5C" d="M446.958,82.784c0,22.385,0,43.993,0,65.899
			c-10.302,0-20.367,0-30.854,0c0-21.674,0-43.403,0-65.692c-9.34,0-18.273-0.126-27.2,0.036
			c-8.626,0.157-17.251,0.531-25.864,1.012c-1.421,0.08-2.783,1.197-4.174,1.835c0.729,1.566,1.134,3.423,2.24,4.649
			c5.429,6.018,11.521,11.499,16.472,17.873c5.995,7.719,8.011,16.904,5.787,26.549c-2.057,8.918-10.939,13.683-18.414,13.864
			c-20.453,0.499-40.928,0.172-61.691,0.172c0-9.289,0-18.355,0-27.996c7.708,0,15.474,0.11,23.235-0.044
			c4.128-0.082,8.265-0.497,12.364-1.023c1.334-0.171,3.179-0.88,3.648-1.879c0.389-0.83-0.611-2.711-1.493-3.669
			c-5.054-5.494-10.686-10.511-15.309-16.334c-7.143-8.998-10.906-19.103-6.615-30.728c2.729-7.396,9.332-12.292,16.818-12.297
			c45.973-0.029,91.946-0.013,137.919-0.005c0.486,0,0.974,0.081,1.786,0.152c0,9.066,0,18.133,0,27.629
			C466.357,82.784,456.952,82.784,446.958,82.784z"/>
		<path fill-rule="evenodd" clip-rule="evenodd" fill="#271F5C" d="M371.644,155.979c4.105,12.633,8.165,25.129,12.606,38.798
			c2.745-12.539,5.375-23.802,7.576-35.147c0.523-2.695,1.238-3.726,3.98-3.692c9.158,0.11,18.319,0.042,27.956,0.042
			c-7.776,31.431-15.489,62.604-23.254,93.99c-9.599,0-19.083-0.113-28.562,0.066c-2.938,0.056-3.394-1.646-4.019-3.767
			c-2.946-9.992-5.964-19.962-8.979-29.934c-0.323-1.069-0.79-2.095-1.482-3.906c-2.978,11.986-5.649,23.157-8.641,34.242
			c-0.361,1.338-2.419,3.107-3.742,3.151c-8.488,0.286-17-0.081-25.484,0.255c-3.501,0.139-3.677-2.166-4.343-4.203
			c-6.169-18.881-12.339-37.762-18.318-56.703c-1.191-3.774-2.722-5.798-7.145-5.303c-4.407,0.494-8.912,0.108-13.598,0.108
			c0-9.427,0-18.493,0-27.779c14.428,0,28.701,0,43.355,0c3.917,12.332,7.892,24.842,12.123,38.159
			c0.586-1.535,1.015-2.447,1.287-3.403c2.986-10.495,6.118-20.953,8.801-31.525c0.685-2.699,1.632-3.523,4.237-3.49
			C354.486,156.048,362.976,155.979,371.644,155.979z"/>
		<path fill-rule="evenodd" clip-rule="evenodd" fill="#261F5C" d="M194.93,203.854c5.831-4.406,11.382-8.602,17.345-13.107
			c10.241,31.613,20.441,63.104,31.051,95.861c-27.372-20.009-53.806-39.332-80.592-58.913c4.504-4.071,8.691-7.907,12.94-11.674
			c2.269-2.011,4.113-1.388,6.472,0.474c6.458,5.095,13.239,9.78,20.984,14.126C200.415,221.754,197.698,212.889,194.93,203.854z"/>
		<path fill-rule="evenodd" clip-rule="evenodd" fill="#FEFEFE" d="M546.094,195.976c0-5.769,0-11.041,0-16.907
			c7.69,0,15.441-0.361,23.137,0.141c4.405,0.286,6.959,4.764,6.526,9.522c-0.516,5.666-2.284,7.23-8.245,7.241
			C560.545,195.985,553.577,195.976,546.094,195.976z"/>
		<path fill-rule="evenodd" clip-rule="evenodd" fill="#FDFCFD" d="M470.096,213.855c-8.521,0-16.494,0-24.968,0
			c4.215-11.635,8.379-23.126,12.971-35.799C462.312,190.63,466.108,201.96,470.096,213.855z"/>
		<path fill-rule="evenodd" clip-rule="evenodd" fill="#FEFEFE" d="M612.048,94.989c0-5.846,0-11.117,0-16.973
			c7.649,0,15.24-0.312,22.788,0.116c4.613,0.261,7.404,4.803,6.884,9.713c-0.612,5.761-2.2,7.133-8.32,7.142
			C626.441,94.997,619.483,94.989,612.048,94.989z"/>
		<path fill-rule="evenodd" clip-rule="evenodd" fill="#FDFCFD" d="M511.113,112.839c4.223-11.637,8.368-23.062,12.977-35.759
			c4.243,12.671,8.067,24.088,11.976,35.759C527.703,112.839,519.735,112.839,511.113,112.839z"/>
	</g>
</g>
</svg>
